<?xml version="1.0" standalone="no"?>
<!DOCTYPE svg PUBLIC "-//W3C//DTD SVG 20010904//EN"
 "http://www.w3.org/TR/2001/REC-SVG-20010904/DTD/svg10.dtd">
<svg version="1.0" xmlns="http://www.w3.org/2000/svg"
 width="83.000000pt" height="83.000000pt" viewBox="0 0 83.000000 83.000000"
 preserveAspectRatio="xMidYMid meet">
<metadata>
Created by potrace 1.14, written by Peter Selinger 2001-2017
</metadata>
<g transform="translate(0.000000,83.000000) scale(0.100000,-0.100000)"
fill="#000000" stroke="none">
<path d="M196 622 c-11 -34 4 -53 38 -50 27 3 31 7 31 33 0 26 -4 30 -32 33
-24 2 -33 -1 -37 -16z"/>
<path d="M400 375 c0 -258 1 -265 20 -265 19 0 20 7 20 265 0 258 -1 265 -20
265 -19 0 -20 -7 -20 -265z"/>
<path d="M564 615 c-8 -33 6 -47 42 -43 25 3 29 7 29 33 0 26 -4 30 -32 33
-28 3 -33 -1 -39 -23z"/>
<path d="M158 523 c-20 -24 -41 -90 -34 -108 7 -20 110 -22 104 -2 -3 6 -21
13 -41 15 -42 4 -41 2 -25 37 13 29 32 34 23 6 -5 -16 0 -20 21 -23 63 -7 52
-68 -12 -68 -36 0 -42 -8 -58 -72 -5 -24 -3 -27 21 -30 28 -3 28 -4 31 -85 2
-65 6 -83 17 -83 12 0 15 17 15 85 0 50 4 85 10 85 6 0 10 -35 10 -86 0 -76 2
-85 18 -82 14 3 17 16 20 86 3 80 4 82 27 82 30 0 30 -4 0 99 -14 47 -25 92
-25 100 0 27 16 -2 34 -61 16 -54 28 -69 39 -50 3 4 -7 43 -22 87 l-26 80 -66
3 c-53 2 -68 -1 -81 -15z"/>
<path d="M516 518 c-20 -33 -38 -96 -31 -108 3 -5 28 -10 56 -10 37 0 49 4 49
15 0 11 -11 15 -36 15 -31 0 -35 3 -32 22 3 24 28 38 28 15 0 -8 13 -17 31
-21 26 -5 30 -10 27 -33 -2 -22 -9 -29 -30 -31 l-28 -3 0 -135 c0 -127 1 -134
20 -134 19 0 20 7 20 110 0 143 18 146 22 3 3 -93 5 -108 21 -111 16 -3 17 11
17 182 0 111 4 186 10 186 5 0 10 -30 12 -67 2 -42 8 -68 16 -71 17 -5 17 169
0 186 -7 7 -42 12 -85 12 -64 0 -74 -3 -87 -22z"/>
</g>
</svg>
